<?xml version="1.0" encoding="utf-8"?>
<!-- Generator: Adobe Illustrator 22.0.1, SVG Export Plug-In . SVG Version: 6.00 Build 0)  -->
<svg version="1.1" id="Слой_1" xmlns="http://www.w3.org/2000/svg" xmlns:xlink="http://www.w3.org/1999/xlink" x="0px" y="0px"
	 viewBox="0 0 150 150" enable-background="new 0 0 150 150" xml:space="preserve">
<g>
	<g>
		<path fill="#FFFFFF" d="M27,113.1c-0.8,0-1.5-0.7-1.5-1.5V47.5c0-0.8,0.7-1.5,1.5-1.5h96c0.8,0,1.5,0.7,1.5,1.5v64.2
			c0,0.8-0.7,1.5-1.5,1.5L27,113.1L27,113.1z"/>
	</g>
	<g>
		<path fill="#444444" d="M123,46.5c0.6,0,1,0.4,1,1v64.2c0,0.6-0.4,1-1,1H27c-0.6,0-1-0.4-1-1V47.5c0-0.6,0.4-1,1-1H123 M123,45.5
			H27c-1.1,0-2,0.9-2,2v64.2c0,1.1,0.9,2,2,2h96c1.1,0,2-0.9,2-2V47.5C125,46.4,124.1,45.5,123,45.5L123,45.5z"/>
	</g>
</g>
<g>
	<g>
		<path fill="#444444" d="M85.8,65.9c-0.2,0-0.4-0.2-0.4-0.4v-1c0-0.2,0.2-0.4,0.4-0.4s0.4,0.2,0.4,0.4v1
			C86.2,65.7,86,65.9,85.8,65.9z"/>
	</g>
	<g>
		<path fill="#444444" d="M85.8,94.8c-0.2,0-0.4-0.2-0.4-0.4v-2.1c0-0.2,0.2-0.4,0.4-0.4s0.4,0.2,0.4,0.4v2.1
			C86.2,94.6,86,94.8,85.8,94.8z M85.8,90.7c-0.2,0-0.4-0.2-0.4-0.4v-2.1c0-0.2,0.2-0.4,0.4-0.4s0.4,0.2,0.4,0.4v2.1
			C86.2,90.5,86,90.7,85.8,90.7z M85.8,86.5c-0.2,0-0.4-0.2-0.4-0.4v-2.1c0-0.2,0.2-0.4,0.4-0.4s0.4,0.2,0.4,0.4v2.1
			C86.2,86.4,86,86.5,85.8,86.5z M85.8,82.4c-0.2,0-0.4-0.2-0.4-0.4V80c0-0.2,0.2-0.4,0.4-0.4s0.4,0.2,0.4,0.4V82
			C86.2,82.2,86,82.4,85.8,82.4z M85.8,78.3c-0.2,0-0.4-0.2-0.4-0.4v-2.1c0-0.2,0.2-0.4,0.4-0.4s0.4,0.2,0.4,0.4v2.1
			C86.2,78.1,86,78.3,85.8,78.3z M85.8,74.1c-0.2,0-0.4-0.2-0.4-0.4v-2.1c0-0.2,0.2-0.4,0.4-0.4s0.4,0.2,0.4,0.4v2.1
			C86.2,74,86,74.1,85.8,74.1z M85.8,70c-0.2,0-0.4-0.2-0.4-0.4v-2.1c0-0.2,0.2-0.4,0.4-0.4s0.4,0.2,0.4,0.4v2.1
			C86.2,69.8,86,70,85.8,70z"/>
	</g>
	<g>
		<path fill="#444444" d="M85.8,97.9c-0.2,0-0.4-0.2-0.4-0.4v-1c0-0.2,0.2-0.4,0.4-0.4s0.4,0.2,0.4,0.4v1
			C86.2,97.7,86,97.9,85.8,97.9z"/>
	</g>
</g>
<g>
	<g>
		<path fill="#444444" d="M36.9,97.5c-1.3,0-2.3-1-2.3-2.3s1-2.3,2.3-2.3c1.3,0,2.3,1,2.3,2.3S38.2,97.5,36.9,97.5z M36.9,93.9
			c-0.7,0-1.3,0.6-1.3,1.3s0.6,1.3,1.3,1.3s1.3-0.6,1.3-1.3S37.6,93.9,36.9,93.9z"/>
	</g>
	<g>
		<path fill="#444444" d="M54.9,86.8c-1.3,0-2.3-1-2.3-2.3s1-2.3,2.3-2.3c1.3,0,2.3,1,2.3,2.3S56.2,86.8,54.9,86.8z M54.9,83.2
			c-0.7,0-1.3,0.6-1.3,1.3s0.6,1.3,1.3,1.3s1.3-0.6,1.3-1.3S55.6,83.2,54.9,83.2z"/>
	</g>
	<g>
		<circle fill="#FFFFFF" cx="85.8" cy="77" r="1.8"/>
		<path fill="#444444" d="M85.8,79.3c-1.3,0-2.3-1-2.3-2.3s1-2.3,2.3-2.3s2.3,1,2.3,2.3S87.1,79.3,85.8,79.3z M85.8,75.7
			c-0.7,0-1.3,0.6-1.3,1.3s0.6,1.3,1.3,1.3s1.3-0.6,1.3-1.3S86.5,75.7,85.8,75.7z"/>
	</g>
	<g>
		<path fill="#444444" d="M114,67.1c-1.3,0-2.3-1-2.3-2.3c0-1.3,1-2.3,2.3-2.3s2.3,1,2.3,2.3C116.3,66.1,115.3,67.1,114,67.1z
			 M114,63.5c-0.7,0-1.3,0.6-1.3,1.3s0.6,1.3,1.3,1.3s1.3-0.6,1.3-1.3S114.7,63.5,114,63.5z"/>
	</g>
	<g>
		<path fill="#444444" d="M99.1,76.1c-1.3,0-2.3-1-2.3-2.3c0-1.3,1-2.3,2.3-2.3s2.3,1,2.3,2.3C101.4,75.1,100.4,76.1,99.1,76.1z
			 M99.1,72.5c-0.7,0-1.3,0.6-1.3,1.3s0.6,1.3,1.3,1.3s1.3-0.6,1.3-1.3S99.8,72.5,99.1,72.5z"/>
	</g>
	<g>
		<path fill="#444444" d="M72.1,86.8c-1.3,0-2.3-1-2.3-2.3s1-2.3,2.3-2.3c1.3,0,2.3,1,2.3,2.3S73.4,86.8,72.1,86.8z M72.1,83.2
			c-0.7,0-1.3,0.6-1.3,1.3s0.6,1.3,1.3,1.3s1.3-0.6,1.3-1.3S72.8,83.2,72.1,83.2z"/>
	</g>
	<g>
		<path fill="#444444" d="M38.7,95.7c-0.2,0-0.3-0.1-0.4-0.2c-0.2-0.2-0.1-0.5,0.1-0.7l14.4-9.9c0.2-0.2,0.5-0.1,0.7,0.1
			c0.2,0.2,0.1,0.5-0.1,0.7L39,95.6C38.9,95.7,38.8,95.7,38.7,95.7z"/>
	</g>
	<g>
		<path fill="#444444" d="M70.2,85H56.7c-0.3,0-0.5-0.2-0.5-0.5s0.2-0.5,0.5-0.5h13.5c0.3,0,0.5,0.2,0.5,0.5S70.5,85,70.2,85z"/>
	</g>
	<g>
		<path fill="#444444" d="M73.9,84.3c-0.2,0-0.3-0.1-0.4-0.2c-0.1-0.2-0.1-0.5,0.2-0.7l10.1-6c0.2-0.1,0.5-0.1,0.7,0.2
			c0.1,0.2,0.1,0.5-0.2,0.7l-10.1,6C74.1,84.3,74,84.3,73.9,84.3z"/>
	</g>
	<g>
		<path fill="#444444" d="M87.6,77c-0.2,0-0.4-0.2-0.5-0.4c-0.1-0.3,0.1-0.5,0.4-0.6l9.7-2c0.3-0.1,0.5,0.1,0.6,0.4
			c0.1,0.3-0.1,0.5-0.4,0.6l-9.7,2C87.7,77,87.6,77,87.6,77z"/>
	</g>
	<g>
		<path fill="#444444" d="M100.9,73.7c-0.2,0-0.3-0.1-0.4-0.2c-0.1-0.2-0.1-0.5,0.2-0.7l11.7-7.2c0.2-0.1,0.5-0.1,0.7,0.2
			c0.1,0.2,0.1,0.5-0.2,0.7l-11.7,7.2C101.1,73.7,101,73.7,100.9,73.7z"/>
	</g>
	<g>
		<path fill="#444444" d="M35.1,95.7H32c-0.3,0-0.5-0.2-0.5-0.5s0.2-0.5,0.5-0.5h3.1c0.3,0,0.5,0.2,0.5,0.5S35.4,95.7,35.1,95.7z"/>
	</g>
	<g>
		<path fill="#444444" d="M115.7,64.2c-0.2,0-0.3-0.1-0.4-0.2c-0.2-0.2-0.1-0.5,0.1-0.7l2.3-1.6c0.2-0.2,0.5-0.1,0.7,0.1
			c0.2,0.2,0.1,0.5-0.1,0.7l-2.3,1.6C115.9,64.2,115.8,64.2,115.7,64.2z"/>
	</g>
</g>
<g>
	<path fill="#444444" d="M130,115.5v2.7c0,0.7-0.6,1.3-1.3,1.3H21.3c-0.7,0-1.3-0.6-1.3-1.3v-2.7h45.2c0.2,0.7,0.9,1.3,1.7,1.3h16.2
		c0.8,0,1.5-0.5,1.7-1.3H130z"/>
</g>
<g>
	<path fill="#444444" d="M75,46h12.5l0,0c0,6.9-5.6,12.5-12.5,12.5S62.5,52.9,62.5,46H75z"/>
	<path fill="#444444" d="M75,59c-7.2,0-13-5.8-13-13v-0.5h26V46C88,53.2,82.2,59,75,59z M63,46.5C63.3,52.9,68.6,58,75,58
		s11.7-5.1,12-11.5H63z"/>
</g>
<g>
	<g>
		<circle fill="#F4F4F4" cx="75" cy="46" r="10"/>
		<path fill="#444444" d="M75,56.3c-5.7,0-10.3-4.6-10.3-10.3S69.3,35.8,75,35.8c5.7,0,10.3,4.6,10.3,10.3S80.7,56.3,75,56.3z
			 M75,36.3c-5.4,0-9.8,4.4-9.8,9.8s4.4,9.8,9.8,9.8s9.8-4.4,9.8-9.8S80.4,36.3,75,36.3z"/>
	</g>
	<g>
		<circle fill="#FFFFFF" cx="75" cy="46" r="7.5"/>
		<path fill="#444444" d="M75,53.8c-4.3,0-7.8-3.5-7.8-7.8s3.5-7.8,7.8-7.8s7.8,3.5,7.8,7.8S79.3,53.8,75,53.8z M75,38.8
			c-4,0-7.3,3.3-7.3,7.3s3.3,7.3,7.3,7.3c4,0,7.3-3.3,7.3-7.3S79,38.8,75,38.8z"/>
	</g>
	<g>
		<g>
			<path fill="#FBFBFA" d="M75.1,50.4"/>
		</g>
		<g>
			
				<path fill="none" stroke="#444444" stroke-width="0.5" stroke-linecap="round" stroke-linejoin="round" stroke-miterlimit="10" d="
				M75.1,50.4"/>
		</g>
		<g>
			
				<path fill="none" stroke="#444444" stroke-width="0.5" stroke-linecap="round" stroke-linejoin="round" stroke-miterlimit="10" d="
				M78.4,46"/>
		</g>
		<g>
			<path fill="none" stroke="#444444" stroke-width="0.5" stroke-miterlimit="10" d="M75.1,50.4"/>
		</g>
		<g>
			
				<path fill="none" stroke="#444444" stroke-width="0.5" stroke-linecap="round" stroke-linejoin="round" stroke-miterlimit="10" d="
				M75.1,50.4"/>
		</g>
		<g>
			
				<path fill="none" stroke="#444444" stroke-width="0.5" stroke-linecap="round" stroke-linejoin="round" stroke-miterlimit="10" d="
				M75.1,50.4"/>
		</g>
		<g>
			<path fill="none" stroke="#444444" stroke-width="0.5" stroke-miterlimit="10" d="M75.1,50.4"/>
		</g>
		<g>
			<path fill="none" stroke="#444444" stroke-width="0.5" stroke-miterlimit="10" d="M75.1,50.4"/>
		</g>
		<g>
			
				<path fill="none" stroke="#868788" stroke-width="0.5" stroke-linecap="round" stroke-linejoin="round" stroke-miterlimit="10" d="
				M70.8,48.4"/>
		</g>
		<g>
			
				<path fill="none" stroke="#868788" stroke-width="0.5" stroke-linecap="round" stroke-linejoin="round" stroke-miterlimit="10" d="
				M70.8,48.4"/>
		</g>
		<g>
			<path fill="none" stroke="#868788" stroke-width="0.5" stroke-miterlimit="10" d="M70.8,48.4"/>
		</g>
		<g>
			<polyline fill="#FBFBFA" points="79.2,48.5 77.2,49.4 75,50.5 73.2,49.6 71,48.5 75,44.5 79.2,48.5 			"/>
		</g>
		<g>
			<polygon fill="#EEEDED" points="75,41.5 75.1,43.1 75.1,44.6 74.5,45.6 73.5,47.3 72.7,48.5 71,48.5 72.4,46.1 			"/>
		</g>
		<g>
			<polyline fill="#EEEDED" points="79.1,48.5 77.6,46 75,41.5 75,43.1 75,44.5 75.6,45.5 76.6,47.3 77.4,48.5 79.1,48.5 			"/>
		</g>
		<g>
			<polygon fill="#EEEDED" points="76.2,46.5 75.6,46.5 74,46.6 76.3,47.9 77.4,48.5 76.6,47.1 			"/>
		</g>
		<g>
			<path fill="#444444" d="M75,50.6c-0.1,0-0.1,0-0.1-0.1l-1.1-4c0-0.1,0-0.1,0.1-0.2c0.1,0,0.1,0,0.2,0.1l1.1,4
				C75.1,50.5,75.1,50.6,75,50.6C75,50.6,75,50.6,75,50.6z"/>
		</g>
		<g>
			
				<path fill="none" stroke="#444444" stroke-width="0.5" stroke-linecap="round" stroke-linejoin="round" stroke-miterlimit="10" d="
				M72,44.5"/>
		</g>
		<g>
			<path fill="none" stroke="#444444" stroke-width="0.5" stroke-miterlimit="10" d="M75.9,47.7"/>
		</g>
		<g>
			<path fill="#444444" d="M71,48.6C71,48.6,71,48.6,71,48.6c-0.1-0.1-0.1-0.1-0.1-0.2l4-7c0-0.1,0.1-0.1,0.2,0c0.1,0,0.1,0.1,0,0.2
				l-4,7C71.1,48.6,71,48.6,71,48.6z"/>
		</g>
		<g>
			<path fill="#444444" d="M79.1,48.6c0,0-0.1,0-0.1-0.1l-4.1-7c0-0.1,0-0.1,0-0.2c0.1,0,0.1,0,0.2,0l4.1,7
				C79.2,48.5,79.2,48.6,79.1,48.6C79.1,48.6,79.1,48.6,79.1,48.6z"/>
		</g>
		<g>
			<path fill="#444444" d="M72.7,48.6H71c-0.1,0-0.1-0.1-0.1-0.1s0.1-0.1,0.1-0.1h1.7c0.1,0,0.1,0.1,0.1,0.1S72.8,48.6,72.7,48.6z"
				/>
		</g>
		<g>
			<path fill="#444444" d="M79.1,48.6h-1.7c-0.1,0-0.1-0.1-0.1-0.1s0.1-0.1,0.1-0.1h1.7c0.1,0,0.1,0.1,0.1,0.1S79.2,48.6,79.1,48.6z
				"/>
		</g>
		<g>
			<path fill="#444444" d="M72.7,48.6C72.7,48.6,72.7,48.6,72.7,48.6c-0.1-0.1-0.1-0.1-0.1-0.2l2.3-4c0-0.1,0.1-0.1,0.2,0
				c0.1,0,0.1,0.1,0,0.2l-2.3,4C72.8,48.6,72.7,48.6,72.7,48.6z"/>
		</g>
		<g>
			<path fill="#444444" d="M77.4,48.6c0,0-0.1,0-0.1-0.1l-2.4-4c0-0.1,0-0.1,0-0.2c0.1,0,0.1,0,0.2,0l2.4,4
				C77.5,48.5,77.5,48.6,77.4,48.6C77.4,48.6,77.4,48.6,77.4,48.6z"/>
		</g>
		<g>
			<path fill="#444444" d="M75,44.6c-0.1,0-0.1-0.1-0.1-0.1v-3c0-0.1,0.1-0.1,0.1-0.1c0.1,0,0.1,0.1,0.1,0.1v3
				C75.1,44.6,75.1,44.6,75,44.6z"/>
		</g>
		<g>
			<path fill="#444444" d="M75,50.6C75,50.6,74.9,50.6,75,50.6l-2.4-2c-0.1,0-0.1-0.1,0-0.2c0-0.1,0.1-0.1,0.2,0l2.3,2
				C75.1,50.5,75.1,50.5,75,50.6C75.1,50.6,75,50.6,75,50.6z"/>
		</g>
		<g>
			<path fill="#444444" d="M75,50.6C75,50.6,74.9,50.6,75,50.6c-0.1-0.1-0.1-0.2-0.1-0.2l2.4-2c0.1,0,0.1,0,0.2,0c0,0.1,0,0.1,0,0.2
				L75,50.6C75.1,50.6,75,50.6,75,50.6z"/>
		</g>
		<g>
			<path fill="#444444" d="M76.2,46.6h-2.3c-0.1,0-0.1-0.1-0.1-0.1s0.1-0.1,0.1-0.1h2.3c0.1,0,0.1,0.1,0.1,0.1S76.3,46.6,76.2,46.6z
				"/>
		</g>
		<g>
			<path fill="#444444" d="M77.4,48.6C77.4,48.6,77.4,48.6,77.4,48.6l-3.6-2c-0.1,0-0.1-0.1,0-0.2c0-0.1,0.1-0.1,0.2,0l3.5,2
				c0.1,0,0.1,0.1,0,0.2C77.5,48.6,77.4,48.6,77.4,48.6z"/>
		</g>
		<g>
			<polygon fill="#444444" points="74.9,50.6 70.9,48.6 71.1,48.4 75.1,50.4 			"/>
		</g>
		<g>
			
				<rect x="74.8" y="49.4" transform="matrix(0.8991 -0.4378 0.4378 0.8991 -13.8947 38.7291)" fill="#444444" width="4.6" height="0.2"/>
		</g>
	</g>
</g>
<g>
	<path fill="#444444" d="M75,34.9c-0.2,0-0.4-0.2-0.4-0.4v-4c0-0.2,0.2-0.4,0.4-0.4s0.4,0.2,0.4,0.4v4C75.4,34.7,75.2,34.9,75,34.9z
		"/>
</g>
<g>
	<path fill="#444444" d="M79,35.4c-0.2,0-0.4-0.2-0.4-0.4v-3c0-0.2,0.2-0.4,0.4-0.4s0.4,0.2,0.4,0.4v3C79.4,35.2,79.2,35.4,79,35.4z
		"/>
</g>
<g>
	<path fill="#444444" d="M71,35.4c-0.2,0-0.4-0.2-0.4-0.4v-3c0-0.2,0.2-0.4,0.4-0.4s0.4,0.2,0.4,0.4v3C71.4,35.2,71.2,35.4,71,35.4z
		"/>
</g>
</svg>
