<?xml version="1.0" encoding="utf-8"?>
<!-- Generator: Adobe Illustrator 22.0.1, SVG Export Plug-In . SVG Version: 6.00 Build 0)  -->
<svg version="1.1" id="Слой_1" xmlns="http://www.w3.org/2000/svg" xmlns:xlink="http://www.w3.org/1999/xlink" x="0px" y="0px"
	 viewBox="0 0 1080 1080" style="enable-background:new 0 0 1080 1080;" xml:space="preserve">
<style type="text/css">
	.st0{fill:#E8E8E8;stroke:#FFFFFF;stroke-width:0.5;}
	.st1{fill:#E3E3E3;stroke:#FFFFFF;stroke-width:0.5;}
	.st2{fill:#ECECEC;stroke:#FFFFFF;stroke-width:0.5;}
	.st3{fill:#E5E5E5;stroke:#FFFFFF;stroke-width:0.5;}
	.st4{fill:#E2E2E2;stroke:#FFFFFF;stroke-width:0.5;}
	.st5{fill:#E9E9E9;stroke:#FFFFFF;stroke-width:0.5;}
	.st6{fill:#E0E0E0;stroke:#FFFFFF;stroke-width:0.5;}
	.st7{fill:#F0F0F0;stroke:#FFFFFF;stroke-width:0.5;}
	.st8{fill:#F2F2F2;stroke:#FFFFFF;stroke-width:0.5;}
	.st9{fill:#EAEAEA;stroke:#FFFFFF;stroke-width:0.5;}
	.st10{fill:#E7E7E7;stroke:#FFFFFF;stroke-width:0.5;}
	.st11{fill:#F7F7F7;stroke:#FFFFFF;stroke-width:0.5;}
	.st12{fill:#EFEFEF;stroke:#FFFFFF;stroke-width:0.5;}
	.st13{fill:#F4F4F4;stroke:#FFFFFF;stroke-width:0.5;}
	.st14{fill:#EBEBEB;stroke:#FFFFFF;stroke-width:0.5;}
	.st15{fill:#F5F5F5;stroke:#FFFFFF;stroke-width:0.5;}
	.st16{fill:#FCFCFC;stroke:#FFFFFF;stroke-width:0.5;}
	.st17{fill:#EDEDED;stroke:#FFFFFF;stroke-width:0.5;}
	.st18{fill:#FDFDFD;stroke:#FFFFFF;stroke-width:0.5;}
	.st19{fill:#F8F8F8;stroke:#FFFFFF;stroke-width:0.5;}
	.st20{fill:#F1F1F1;stroke:#FFFFFF;stroke-width:0.5;}
	.st21{fill:#E4E4E4;stroke:#FFFFFF;stroke-width:0.5;}
	.st22{fill:#EEEEEE;stroke:#FFFFFF;stroke-width:0.5;}
	.st23{fill:#F3F3F3;stroke:#FFFFFF;stroke-width:0.5;}
	.st24{fill:#F6F6F6;stroke:#FFFFFF;stroke-width:0.5;}
	.st25{fill:#F9F9F9;stroke:#FFFFFF;stroke-width:0.5;}
	.st26{fill:#FBFBFB;stroke:#FFFFFF;stroke-width:0.5;}
	.st27{fill:#FAFAFA;stroke:#FFFFFF;stroke-width:0.5;}
</style>
<path class="st0" d="M523,593l65,87l49-120L523,593z"/>
<path class="st1" d="M588,680l161-10L637,560L588,680z"/>
<path class="st2" d="M637,560l-71-132l-43,165L637,560z"/>
<path class="st2" d="M682,443l-116-15l71,132L682,443z"/>
<path class="st3" d="M800,625L682,443l-45,117L800,625z"/>
<path class="st4" d="M749,670l51-45l-163-65L749,670z"/>
<path class="st5" d="M523,593L400,723l188-43L523,593z"/>
<path class="st6" d="M588,680l62,223l99-233L588,680z"/>
<path class="st7" d="M373,510l27,213l123-130L373,510z"/>
<path class="st8" d="M566,428l-193,82l150,83L566,428z"/>
<path class="st9" d="M400,723l27,103l161-146L400,723z"/>
<path class="st9" d="M427,826l72,50l89-196L427,826z"/>
<path class="st10" d="M499,876l151,27l-62-223L499,876z"/>
<path class="st10" d="M1002,735l-89-152l-113,42L1002,735z"/>
<path class="st7" d="M682,443l-3-135L566,428L682,443z"/>
<path class="st11" d="M566,428L463,317l-90,193L566,428z"/>
<path class="st12" d="M911,333l-232-25l3,135L911,333z"/>
<path class="st13" d="M679,308l-216,9l103,111L679,308z"/>
<path class="st0" d="M800,625l113-42L682,443L800,625z"/>
<path class="st1" d="M1002,735L800,625l-51,45L1002,735z"/>
<path class="st14" d="M499,876l19,56l132-29L499,876z"/>
<path class="st8" d="M361,1007l157-75l-19-56L361,1007z"/>
<path class="st8" d="M373,510l-139,94l166,119L373,510z"/>
<path class="st12" d="M400,723l-206,71l233,32L400,723z"/>
<path class="st8" d="M427,826l-66,181l138-131L427,826z"/>
<path class="st15" d="M260,443l-26,161l139-94L260,443z"/>
<path class="st16" d="M385,284L260,443l113,67L385,284z"/>
<path class="st4" d="M650,903l177-6l-78-227L650,903z"/>
<path class="st9" d="M518,932l149,41l-17-70L518,932z"/>
<path class="st3" d="M667,973l160-76l-177,6L667,973z"/>
<path class="st17" d="M234,604l-14,89l180,30L234,604z"/>
<path class="st18" d="M463,317l-78-33l-12,226L463,317z"/>
<path class="st19" d="M469,198l-84,86l78,33L469,198z"/>
<path class="st2" d="M913,583l52-91l-283-49L913,583z"/>
<path class="st12" d="M1114,562l-149-70l-52,91L1114,562z"/>
<path class="st20" d="M965,492l-54-159L682,443L965,492z"/>
<path class="st13" d="M679,308L469,198l-6,119L679,308z"/>
<path class="st7" d="M546,108l-77,90l210,110L546,108z"/>
<path class="st21" d="M827,897l175-162l-253-65L827,897z"/>
<path class="st2" d="M220,693l-26,101l206-71L220,693z"/>
<path class="st5" d="M36,720l158,74l26-101L36,720z"/>
<path class="st22" d="M111,565l109,128l14-89L111,565z"/>
<path class="st15" d="M210,954l151,53l66-181L210,954z"/>
<path class="st2" d="M518,932l137,142l12-101L518,932z"/>
<path class="st5" d="M827,897l177-59l-2-103L827,897z"/>
<path class="st0" d="M667,973l132,82l28-158L667,973z"/>
<path class="st20" d="M455,1078l200-4L518,932L455,1078z"/>
<path class="st2" d="M1003,953l1-115l-177,59L1003,953z"/>
<path class="st8" d="M260,443L111,565l123,39L260,443z"/>
<path class="st23" d="M65,439l46,126l149-122L65,439z"/>
<path class="st15" d="M361,1007l94,71l63-146L361,1007z"/>
<path class="st5" d="M655,1074l144-19l-132-82L655,1074z"/>
<path class="st14" d="M727,47l-181,61l133,200L727,47z"/>
<path class="st24" d="M965,492l38-168l-92,9L965,492z"/>
<path class="st25" d="M1131,324h-128l-38,168L1131,324z"/>
<path class="st19" d="M1005,307l-2,17h128L1005,307z"/>
<path class="st19" d="M323,51l-81,167l143,66L323,51z"/>
<path class="st26" d="M385,284l-143-66l18,225L385,284z"/>
<path class="st12" d="M882,179L679,308l232,25L882,179z"/>
<path class="st19" d="M417,1307l97-52l-59-177L417,1307z"/>
<path class="st20" d="M194,794l16,160l217-128L194,794z"/>
<path class="st12" d="M139,858l71,96l-16-160L139,858z"/>
<path class="st9" d="M36,720l103,138l55-64L36,720z"/>
<path class="st24" d="M1003,324l2-17l-94,26L1003,324z"/>
<path class="st9" d="M1112,661l-199-78l89,152L1112,661z"/>
<path class="st23" d="M1005,307L882,179l29,154L1005,307z"/>
<path class="st14" d="M1092,872l20-211l-110,74L1092,872z"/>
<path class="st25" d="M323,51l62,233l84-86L323,51z"/>
<path class="st22" d="M1112,661l2-99l-201,21L1112,661z"/>
<path class="st17" d="M1004,838l88,34l-90-137L1004,838z"/>
<path class="st2" d="M799,1055l204-102l-176-56L799,1055z"/>
<path class="st25" d="M242,218l-109,90l127,135L242,218z"/>
<path class="st9" d="M111,565L36,720l184-27L111,565z"/>
<path class="st19" d="M133,308L65,439l195,4L133,308z"/>
<path class="st20" d="M799,1055l163,158l41-260L799,1055z"/>
<path class="st14" d="M655,1074l119,62l25-81L655,1074z"/>
<path class="st14" d="M670,1274l104-138l-119-62L670,1274z"/>
<path class="st11" d="M156,1202l129-11l-75-237L156,1202z"/>
<path class="st2" d="M10,473l26,247l75-155L10,473z"/>
<path class="st12" d="M1003,953l89-81l-88-34L1003,953z"/>
<path class="st8" d="M455,1078l79,104l121-108L455,1078z"/>
<path class="st15" d="M514,1255l20-73l-79-104L514,1255z"/>
<path class="st14" d="M882,179L727,47l-48,261L882,179z"/>
<path class="st20" d="M65,439l-55,34l101,92L65,439z"/>
<path class="st13" d="M-120,375l130,98l55-34L-120,375z"/>
<path class="st8" d="M1005,307l-9-182l-114,54L1005,307z"/>
<path class="st9" d="M882,179L858,38l-131,9L882,179z"/>
<path class="st24" d="M1114,562l17-238L965,492L1114,562z"/>
<path class="st27" d="M1141,291l-10,33l109,13L1141,291z"/>
<path class="st15" d="M133,308L0,194l65,245L133,308z"/>
<path class="st8" d="M64,113L0,194l133,114L64,113z"/>
<path class="st24" d="M414-24l-91,75l146,147L414-24z"/>
<path class="st8" d="M414-24l55,222l77-90L414-24z"/>
<path class="st20" d="M505-59l-91,35l132,132L505-59z"/>
<path class="st12" d="M996,125L858,38l24,141L996,125z"/>
<path class="st24" d="M1141,291L996,125l9,182L1141,291z"/>
<path class="st25" d="M1131,324l10-33l-136,16L1131,324z"/>
<path class="st27" d="M1240,337l-109-13l-17,238L1240,337z"/>
<path class="st12" d="M534,1182l136,92l-15-200L534,1182z"/>
<path class="st26" d="M285,1191l170-113l-94-71L285,1191z"/>
<path class="st11" d="M210,954l75,237l76-184L210,954z"/>
<path class="st7" d="M41,1028l169-74l-71-96L41,1028z"/>
<path class="st14" d="M505-59l41,167l181-61L505-59z"/>
<path class="st12" d="M774,1136l188,77l-163-158L774,1136z"/>
<path class="st20" d="M1003,953l214-21l-125-60L1003,953z"/>
<path class="st23" d="M514,1255l156,19l-136-92L514,1255z"/>
<path class="st14" d="M-56,839l52,81l143-62L-56,839z"/>
<path class="st5" d="M-56,839l195,19L36,720L-56,839z"/>
<path class="st9" d="M663-112L505-59L727,47L663-112z"/>
<path class="st0" d="M-129,672l73,167l92-119L-129,672z"/>
<path class="st17" d="M670,1274l128-8l-24-130L670,1274z"/>
<path class="st20" d="M-184,1054l225-26L-4,920L-184,1054z"/>
<path class="st22" d="M-4,920l45,108l98-170L-4,920z"/>
<path class="st15" d="M323,51L212,29l30,189L323,51z"/>
<path class="st13" d="M252-86L212,29l111,22L252-86z"/>
<path class="st24" d="M252-86l71,137l91-75L252-86z"/>
<path class="st13" d="M1207,1078l10-146l-214,21L1207,1078z"/>
<path class="st17" d="M1281,844l10-157l-179-26L1281,844z"/>
<path class="st22" d="M1112,661l179,26l-177-125L1112,661z"/>
<path class="st22" d="M1281,844l-169-183l-20,211L1281,844z"/>
<path class="st24" d="M1141,291l8-160l-153-6L1141,291z"/>
<path class="st19" d="M1338,486l-98-149l-126,225L1338,486z"/>
<path class="st7" d="M798,1266l164-53l-188-77L798,1266z"/>
<path class="st15" d="M514,1255l-97,52l253-33L514,1255z"/>
<path class="st11" d="M1112,1346l-48-68l-266-12L1112,1346z"/>
<path class="st16" d="M285,1191l132,116l38-229L285,1191z"/>
<path class="st26" d="M198,1306l219,1l-132-116L198,1306z"/>
<path class="st17" d="M-243,613l114,59L10,473L-243,613z"/>
<path class="st9" d="M10,473l-139,199l165,48L10,473z"/>
<path class="st15" d="M64,113l69,195l109-90L64,113z"/>
<path class="st23" d="M212,29L64,113l178,105L212,29z"/>
<path class="st0" d="M887-79l-224-33l64,159L887-79z"/>
<path class="st11" d="M372-237L252-86l162,62L372-237z"/>
<path class="st9" d="M887-79L727,47l131-9L887-79z"/>
<path class="st8" d="M1217,932l64-88l-189,28L1217,932z"/>
<path class="st13" d="M41,1028l115,174l54-248L41,1028z"/>
<path class="st17" d="M1014-36L887-79L858,38L1014-36z"/>
<path class="st19" d="M1303,218l-154-87l-8,160L1303,218z"/>
<path class="st24" d="M0,194l-120,181l185,64L0,194z"/>
<path class="st22" d="M1014-36L858,38l138,87L1014-36z"/>
<path class="st8" d="M1291,687l47-201l-224,76L1291,687z"/>
<path class="st27" d="M1240,337l63-119l-162,73L1240,337z"/>
<path class="st17" d="M1306,991l32-505l-47,201L1306,991z"/>
<path class="st0" d="M-129,672l-50,5l123,162L-129,672z"/>
<path class="st12" d="M-56,839l-128,215L-4,920L-56,839z"/>
<path class="st9" d="M-243,613l64,64l50-5L-243,613z"/>
<path class="st8" d="M1149,131L1014-36l-18,161L1149,131z"/>
<path class="st24" d="M962,1213l245-135l-204-125L962,1213z"/>
<path class="st13" d="M1217,932l89,59l-25-147L1217,932z"/>
<path class="st15" d="M372-237l42,213l91-35L372-237z"/>
<path class="st7" d="M212,29L110-119L64,113L212,29z"/>
<path class="st11" d="M63,1300l135,6l-42-104L63,1300z"/>
<path class="st25" d="M156,1202l42,104l87-115L156,1202z"/>
<path class="st13" d="M63,1300l93-98l-238-3L63,1300z"/>
<path class="st7" d="M-112-10l48,158l128-35L-112-10z"/>
<path class="st20" d="M64,113l-128,35l64,46L64,113z"/>
<path class="st24" d="M0,194l-159,104l39,77L0,194z"/>
<path class="st24" d="M1207,1078l99-87l-89-59L1207,1078z"/>
<path class="st8" d="M1281,844l25,147l-15-304L1281,844z"/>
<path class="st8" d="M-120,375l-123,238L10,473L-120,375z"/>
<path class="st23" d="M-64,148l-95,150L0,194L-64,148z"/>
<path class="st8" d="M1149,131l8-167h-143L1149,131z"/>
<path class="st18" d="M1338,486l-35-268l-63,119L1338,486z"/>
<path class="st19" d="M962,1213l102,65l143-200L962,1213z"/>
<path class="st19" d="M1207,1078l42,88l57-175L1207,1078z"/>
<path class="st13" d="M798,1266l266,12l-102-65L798,1266z"/>
<path class="st8" d="M1112,1346l-314-80l-128,8L1112,1346z"/>
<path class="st23" d="M574-268l-202,31L505-59L574-268z"/>
<path class="st5" d="M887-79L721-209l-58,97L887-79z"/>
<path class="st2" d="M844-249l-123,40L887-79L844-249z"/>
<path class="st9" d="M-179,677l-54,176l177-14L-179,677z"/>
<path class="st13" d="M-281,416l38,197l123-238L-281,416z"/>
<path class="st0" d="M-243,613l10,240l54-176L-243,613z"/>
<path class="st13" d="M1296,54l-139-90l-8,167L1296,54z"/>
<path class="st7" d="M1047-235l-203-14l43,170L1047-235z"/>
<path class="st25" d="M1064,1278l185-112l-42-88L1064,1278z"/>
<path class="st23" d="M-82,1199l238,3L41,1028L-82,1199z"/>
<path class="st13" d="M224-245L110-119l142,33L224-245z"/>
<path class="st23" d="M252-86l-142-33L212,29L252-86z"/>
<path class="st22" d="M574-268L505-59l158-53L574-268z"/>
<path class="st0" d="M844-249l-270-19l147,59L844-249z"/>
<path class="st9" d="M721-209l-147-59l89,156L721-209z"/>
<path class="st12" d="M-233,853l49,201l128-215L-233,853z"/>
<path class="st19" d="M-159,298l-122,118l161-41L-159,298z"/>
<path class="st22" d="M-243,613l-48,516l58-276L-243,613z"/>
<path class="st11" d="M-239,130l-42,286l122-118L-239,130z"/>
<path class="st13" d="M-239,130l80,168l95-150L-239,130z"/>
<path class="st23" d="M-184,1054l102,145l123-171L-184,1054z"/>
<path class="st20" d="M1047-235L887-79l127,43L1047-235z"/>
<path class="st23" d="M1157-36l-110-199l-33,199H1157z"/>
<path class="st11" d="M1303,218l-7-164l-147,77L1303,218z"/>
<path class="st26" d="M1338,486l-42-432l7,164L1338,486z"/>
<path class="st27" d="M1064,1278l48,68l137-180L1064,1278z"/>
<path class="st22" d="M417,1307l695,39l-442-72L417,1307z"/>
<path class="st23" d="M198,1306l914,40l-695-39L198,1306z"/>
<path class="st19" d="M574-268l-350,23l148,8L574-268z"/>
<path class="st24" d="M372-237l-148-8l28,159L372-237z"/>
<path class="st7" d="M34-237L-112-10l222-109L34-237z"/>
<path class="st22" d="M110-119L-112-10L64,113L110-119z"/>
<path class="st24" d="M-156,1307l77-35l-3-73L-156,1307z"/>
<path class="st24" d="M-82,1199l3,73l142,28L-82,1199z"/>
<path class="st20" d="M-112-10l-127,140l175,18L-112-10z"/>
<path class="st22" d="M844-249l353-15l-623-4L844-249z"/>
<path class="st15" d="M1256-170l-209-65l110,199L1256-170z"/>
<path class="st27" d="M1249,1166l75,121l-18-296L1249,1166z"/>
<path class="st15" d="M1306,991l18,296l14-801L1306,991z"/>
<path class="st26" d="M1112,1346l212-59l-75-121L1112,1346z"/>
<path class="st20" d="M-112-10l-98-104l-29,244L-112-10z"/>
<path class="st8" d="M224-245l-190,8l76,118L224-245z"/>
<path class="st8" d="M0-276l34,39l190-8L0-276z"/>
<path class="st15" d="M1296,54l-9-185l-130,95L1296,54z"/>
<path class="st19" d="M1338,486l-51-617l9,185L1338,486z"/>
<path class="st24" d="M-291,1129l135,178l74-108L-291,1129z"/>
<path class="st24" d="M-79,1272l-77,35l219-7L-79,1272z"/>
<path class="st15" d="M63,1300l-219,7l354-1L63,1300z"/>
<path class="st18" d="M198,1306l-354,1l1268,39L198,1306z"/>
<path class="st15" d="M-291,1129l209,70l-102-145L-291,1129z"/>
<path class="st5" d="M-281,416l-10,713l48-516L-281,416z"/>
<path class="st23" d="M-233,853l-58,276l107-75L-233,853z"/>
<path class="st24" d="M1287-131l-31-39l-99,134L1287-131z"/>
<path class="st13" d="M1047-235l150-29l-353,15L1047-235z"/>
<path class="st24" d="M1256-170l-59-94l-150,29L1256-170z"/>
<path class="st11" d="M1287-131l-90-133l59,94L1287-131z"/>
<path class="st20" d="M34-237l-244,123l98,104L34-237z"/>
<path class="st24" d="M574-268L0-276l224,31L574-268z"/>
<path class="st12" d="M1197-264L0-276l574,8L1197-264z"/>
<path class="st20" d="M0-276l-210,162L34-237L0-276z"/>
<path class="st23" d="M-239,130l6-273l-48,559L-239,130z"/>
<path class="st8" d="M0-276l-233,133l23,29L0-276z"/>
<path class="st8" d="M-210-114l-23-29l-6,273L-210-114z"/>
</svg>
