<?xml version="1.0" encoding="utf-8"?>
<!-- Generator: Adobe Illustrator 22.0.1, SVG Export Plug-In . SVG Version: 6.00 Build 0)  -->
<svg version="1.1" xmlns="http://www.w3.org/2000/svg" xmlns:xlink="http://www.w3.org/1999/xlink" x="0px" y="0px"
	 viewBox="0 0 16 16" enable-background="new 0 0 16 16" xml:space="preserve">
<g id="Слой_1" display="none">
</g>
<g id="Слой_3" display="none">
	<rect x="3" y="3" display="inline" fill="#FFFFFF" stroke="#444444" stroke-miterlimit="10" width="4" height="4"/>
	<rect x="3" y="9" display="inline" fill="#FFFFFF" stroke="#444444" stroke-miterlimit="10" width="4" height="4"/>
	<rect x="9" y="9" display="inline" fill="#FFFFFF" stroke="#444444" stroke-miterlimit="10" width="4" height="4"/>
	<rect x="9" y="3" display="inline" fill="#FFFFFF" stroke="#444444" stroke-miterlimit="10" width="4" height="4"/>
</g>
<g id="Слой_4" display="none">
	
		<rect x="4" y="4" transform="matrix(0.7071 -0.7071 0.7071 0.7071 -3.3137 8)" display="inline" fill="#FFFFFF" stroke="#444444" stroke-miterlimit="10" width="8" height="8"/>
</g>
<g id="Слой_6" display="none">
	<circle display="inline" fill="#DDDDDD" cx="8" cy="8" r="7.5"/>
</g>
<g id="Слой_2__x28_копия_x29_" display="none">
	<g display="inline">
		<g>
			<polygon fill="#151515" points="8,15.8 1,12.3 1,3.7 8,7.2 			"/>
			<polygon fill="#444444" points="8,15.8 15,12.3 15,3.7 8,7.2 			"/>
			<polygon fill="#888888" points="1,3.7 8,0.2 15,3.7 8,7.2 			"/>
		</g>
		<g>
			<g>
				<rect x="7.9" y="1.9" fill="#FFFFFF" width="0.2" height="3.7"/>
			</g>
			<g>
				<g>
					<polygon fill="#FFFFFF" points="11.3,11.6 13.7,11.5 7.9,14.3 7.9,14.3 10.1,12.5 10.3,12.3 					"/>
				</g>
			</g>
			<g>
				<g>
					<polygon fill="#FFFFFF" points="8,1.6 8,3.9 8,5.9 7.2,7.3 5.7,9.8 4.7,11.5 2.2,11.5 4.3,8 					"/>
				</g>
			</g>
			<g>
				<g>
					<polygon fill="#FFFFFF" points="8,1.7 8,3.9 8,5.9 8.8,7.3 10.3,9.8 11.3,11.6 13.8,11.5 11.7,7.9 					"/>
				</g>
			</g>
			<g>
				<g>
					<polygon fill="#FFFFFF" points="2.2,11.6 4.7,11.5 7.9,14.3 4,12.4 3.4,12.1 3.1,12 					"/>
				</g>
			</g>
			<g>
				<g>
					<polygon fill="#FFFFFF" points="9.6,8.7 8.7,8.7 6.3,8.8 9.6,10.6 11.2,11.5 10,9.5 					"/>
				</g>
			</g>
			<g>
				<g>
					<line fill="#FFFFFF" x1="2.2" y1="11.5" x2="4.7" y2="11.5"/>
				</g>
				<g>
					<path fill="#FFFFFF" d="M4.7,11.6C4.7,11.6,4.7,11.6,4.7,11.6l-2.5,0c-0.1,0-0.1,0-0.1-0.1c0-0.1,0-0.1,0.1-0.1c0,0,0,0,0,0
						l2.5,0c0.1,0,0.1,0,0.1,0.1C4.8,11.6,4.7,11.6,4.7,11.6z"/>
				</g>
			</g>
			<g>
				<g>
					<line fill="#FFFFFF" x1="11.3" y1="11.5" x2="13.8" y2="11.5"/>
				</g>
				<g>
					<path fill="#FFFFFF" d="M13.8,11.7L13.8,11.7l-2.5,0c-0.1,0-0.1,0-0.1-0.1c0-0.1,0-0.1,0.1-0.1l0,0l2.5,0c0.1,0,0.1,0,0.1,0.1
						C13.9,11.6,13.8,11.7,13.8,11.7z"/>
				</g>
			</g>
			<g>
				<g>
					<line fill="#FFFFFF" x1="8" y1="5.9" x2="4.7" y2="11.5"/>
				</g>
				<g>
					<path fill="#FFFFFF" d="M4.7,11.6C4.7,11.6,4.7,11.6,4.7,11.6c-0.1,0-0.1-0.1-0.1-0.2l3.3-5.6c0,0,0.1-0.1,0.1,0
						c0,0,0.1,0.1,0,0.1L4.7,11.6C4.8,11.6,4.7,11.6,4.7,11.6z"/>
				</g>
			</g>
			<g>
				<g>
					<line fill="#FFFFFF" x1="11.3" y1="11.5" x2="8" y2="5.9"/>
				</g>
				<g>
					<path fill="#FFFFFF" d="M11.3,11.6C11.2,11.6,11.2,11.6,11.3,11.6L7.9,5.9c0,0,0-0.1,0-0.1c0,0,0.1,0,0.1,0l3.3,5.6
						C11.4,11.5,11.4,11.6,11.3,11.6C11.3,11.6,11.3,11.6,11.3,11.6z"/>
				</g>
			</g>
			<g>
				<g>
					<path fill="#FFFFFF" stroke="#CCCACA" stroke-width="0.5" stroke-linecap="round" stroke-miterlimit="10" d="M4.7,11.5"/>
				</g>
			</g>
			<g>
				<g>
					<line fill="#FFFFFF" x1="8" y1="14.3" x2="4.7" y2="11.5"/>
				</g>
				<g>
					<path fill="#FFFFFF" d="M8,14.5c0,0-0.1,0-0.1,0l-3.3-2.8c-0.1-0.1-0.1-0.2,0-0.3c0.1-0.1,0.2-0.1,0.3,0l3.3,2.8
						c0.1,0.1,0.1,0.2,0,0.3C8.1,14.5,8,14.5,8,14.5z"/>
				</g>
			</g>
			<g>
				<g>
					<line fill="#FFFFFF" x1="11.3" y1="11.5" x2="8" y2="14.3"/>
				</g>
				<g>
					<path fill="#FFFFFF" d="M8,14.5c-0.1,0-0.1,0-0.2-0.1c-0.1-0.1-0.1-0.2,0-0.3l3.3-2.8c0.1-0.1,0.2-0.1,0.3,0
						c0.1,0.1,0.1,0.2,0,0.3l-3.3,2.8C8.1,14.5,8,14.5,8,14.5z"/>
				</g>
			</g>
			<g>
				<g>
					<line fill="#FFFFFF" x1="6.3" y1="8.7" x2="9.6" y2="8.7"/>
				</g>
				<g>
					<path fill="#FFFFFF" d="M9.6,8.8H6.3c-0.1,0-0.1,0-0.1-0.1c0-0.1,0-0.1,0.1-0.1h3.2c0.1,0,0.1,0,0.1,0.1
						C9.7,8.8,9.6,8.8,9.6,8.8z"/>
				</g>
			</g>
			<g>
				<g>
					<line fill="#FFFFFF" x1="6.3" y1="8.7" x2="11.3" y2="11.5"/>
				</g>
				<g>
					<path fill="#FFFFFF" d="M11.3,11.6C11.3,11.6,11.3,11.6,11.3,11.6l-5-2.8c0,0-0.1-0.1,0-0.1c0,0,0.1-0.1,0.1,0l5,2.8
						C11.4,11.5,11.4,11.5,11.3,11.6C11.4,11.6,11.3,11.6,11.3,11.6z"/>
				</g>
			</g>
			<g>
				<g>
					<line fill="#FFFFFF" x1="7.8" y1="13.9" x2="6.5" y2="9.2"/>
					
						<rect x="6.8" y="9.1" transform="matrix(0.9607 -0.2777 0.2777 0.9607 -2.9174 2.4388)" fill="#FFFFFF" width="0.7" height="4.9"/>
				</g>
				<g>
					<path fill="#FFFFFF" d="M7.8,14c-0.1,0-0.1,0-0.2-0.1L6.3,9.2c0-0.1,0-0.2,0.1-0.2c0.1,0,0.2,0,0.2,0.1L8,13.8
						C8,13.9,8,14,7.8,14C7.9,14,7.8,14,7.8,14z"/>
					<path fill="#FFFFFF" d="M7.8,14.3c-0.2,0-0.4-0.2-0.5-0.4L6,9.4C5.9,9.1,6.1,8.8,6.3,8.7c0.1,0,0.3,0,0.4,0
						C6.8,8.8,6.9,9,7,9.1l1.4,4.6c0.1,0.3-0.1,0.6-0.4,0.6L7.8,14.3z"/>
				</g>
			</g>
			<g>
				<g>
					<path fill="#FFFFFF" d="M8,14.5c-0.1,0-0.1,0-0.2-0.1c0-0.1,0-0.2,0.1-0.3l5.8-2.8c0.1,0,0.2,0,0.3,0.1c0,0.1,0,0.2-0.1,0.3
						L8,14.5C8,14.5,8,14.5,8,14.5z"/>
				</g>
				<g>
					<line fill="#FFFFFF" x1="8" y1="14.3" x2="13.8" y2="11.5"/>
				</g>
			</g>
			<g>
				<g>
					<line fill="#FFFFFF" x1="2.2" y1="11.6" x2="7.9" y2="14.3"/>
				</g>
				<g>
					<path fill="#FFFFFF" d="M7.9,14.5C7.9,14.5,7.9,14.5,7.9,14.5l-5.8-2.8C2,11.7,2,11.6,2,11.5c0-0.1,0.2-0.1,0.3-0.1L8,14.1
						c0.1,0,0.1,0.2,0.1,0.3C8.1,14.5,8,14.5,7.9,14.5z"/>
				</g>
			</g>
			<g>
				<g>
					<line fill="#FFFFFF" x1="8" y1="1.7" x2="2.2" y2="11.5"/>
				</g>
				<g>
					<path fill="#FFFFFF" d="M2.2,11.7c0,0-0.1,0-0.1,0C2,11.7,2,11.5,2,11.4l5.8-9.9C7.9,1.5,8,1.4,8.1,1.5
						c0.1,0.1,0.1,0.2,0.1,0.3l-5.8,9.9C2.3,11.7,2.3,11.7,2.2,11.7z"/>
				</g>
			</g>
			<g>
				<g>
					<line fill="#FFFFFF" x1="13.8" y1="11.5" x2="8" y2="1.7"/>
				</g>
				<g>
					<path fill="#FFFFFF" d="M13.8,11.7c-0.1,0-0.1,0-0.2-0.1L7.8,1.8c-0.1-0.1,0-0.2,0.1-0.3c0.1-0.1,0.2,0,0.3,0.1l5.8,9.9
						c0.1,0.1,0,0.2-0.1,0.3C13.9,11.7,13.8,11.7,13.8,11.7z"/>
				</g>
			</g>
		</g>
	</g>
</g>
<g id="Слой_2__x28_копия2_x29_">
	<g>
		<g>
			<g>
				<polygon fill="#FFFFFF" points="8,15.3 1.4,12 1.4,4 8,7.2 				"/>
				<path fill="#444444" d="M8,15.9c-0.1,0-0.2,0-0.3-0.1l-6.6-3.3c-0.2-0.1-0.3-0.3-0.3-0.5V4c0-0.2,0.1-0.4,0.3-0.5
					c0.2-0.1,0.4-0.1,0.6,0l6.6,3.3C8.5,6.8,8.6,7,8.6,7.2v8.1c0,0.2-0.1,0.4-0.3,0.5C8.2,15.9,8.1,15.9,8,15.9z M2,11.7l5.4,2.7
					V7.6L2,4.9V11.7z"/>
			</g>
			<g>
				<polygon fill="#FFFFFF" points="8,15.3 14.6,12 14.6,4 8,7.2 				"/>
				<path fill="#444444" d="M8,15.9c-0.1,0-0.2,0-0.3-0.1c-0.2-0.1-0.3-0.3-0.3-0.5V7.2c0-0.2,0.1-0.4,0.3-0.5l6.6-3.3
					c0.2-0.1,0.4-0.1,0.6,0c0.2,0.1,0.3,0.3,0.3,0.5V12c0,0.2-0.1,0.4-0.3,0.5l-6.6,3.3C8.2,15.9,8.1,15.9,8,15.9z M8.6,7.6v6.8
					l5.4-2.7V4.9L8.6,7.6z"/>
			</g>
			<g>
				<polygon fill="#FFFFFF" points="1.4,4 8,0.7 14.6,4 8,7.2 				"/>
				<path fill="#444444" d="M8,7.8c-0.1,0-0.2,0-0.3-0.1L1.2,4.5C0.9,4.4,0.8,4.2,0.8,4s0.1-0.4,0.3-0.5l6.6-3.3
					C7.9,0,8.1,0,8.3,0.1l6.6,3.3c0.2,0.1,0.3,0.3,0.3,0.5s-0.1,0.4-0.3,0.5L8.3,7.8C8.2,7.8,8.1,7.8,8,7.8z M2.8,4L8,6.6L13.2,4
					L8,1.3L2.8,4z"/>
			</g>
		</g>
		<g>
			<polygon fill="#FFFFFF" points="8,14.9 12.5,12.4 10.3,8.5 8,4.6 5.7,8.5 3.5,12.4 			"/>
		</g>
		<g>
			<g>
				<g>
					<rect x="7.9" y="1.1" fill="#444444" width="0.3" height="4.3"/>
				</g>
			</g>
			<g>
				<g>
					<g>
						<polygon fill="#444444" points="11.7,12.1 14.6,12 7.9,15.2 7.9,15.2 10.3,13.2 10.6,12.9 						"/>
					</g>
				</g>
			</g>
			<g>
				<g>
					<g>
						<polygon fill="#444444" points="8,0.7 8,3.3 8,5.7 7.1,7.2 5.4,10 4.2,12 1.4,12 3.7,8 						"/>
					</g>
				</g>
			</g>
			<g>
				<g>
					<g>
						<polygon fill="#444444" points="8,0.8 8,3.3 8,5.7 8.9,7.2 10.6,10.1 11.8,12.1 14.6,12 12.2,7.9 						"/>
					</g>
				</g>
			</g>
			<g>
				<g>
					<g>
						<polygon fill="#444444" points="1.4,12.1 4.3,12 7.9,15.2 3.4,13 2.7,12.7 2.4,12.5 						"/>
					</g>
				</g>
			</g>
			<g>
				<g>
					<g>
						<polygon fill="#444444" points="9.8,8.8 8.8,8.8 6.1,8.9 9.8,11 11.7,12 10.3,9.7 						"/>
					</g>
				</g>
			</g>
			<g>
				<g>
					<g>
						<line fill="#444444" x1="1.4" y1="12" x2="4.2" y2="12"/>
					</g>
				</g>
				<g>
					<g>
						<path fill="#444444" d="M4.2,12.2C4.2,12.2,4.2,12.2,4.2,12.2l-2.8,0c-0.1,0-0.1-0.1-0.1-0.1c0-0.1,0.1-0.1,0.1-0.1
							c0,0,0,0,0,0l2.8,0c0.1,0,0.1,0.1,0.1,0.1C4.3,12.1,4.3,12.2,4.2,12.2z"/>
					</g>
				</g>
			</g>
			<g>
				<g>
					<g>
						<line fill="#444444" x1="11.8" y1="12" x2="14.6" y2="12.1"/>
					</g>
				</g>
				<g>
					<g>
						<path fill="#444444" d="M14.6,12.2L14.6,12.2l-2.8,0c-0.1,0-0.1-0.1-0.1-0.1c0-0.1,0.1-0.1,0.1-0.1l0,0l2.8,0
							c0.1,0,0.1,0.1,0.1,0.1C14.7,12.1,14.6,12.2,14.6,12.2z"/>
					</g>
				</g>
			</g>
			<g>
				<g>
					<g>
						<line fill="#444444" x1="8" y1="5.6" x2="4.2" y2="12"/>
					</g>
				</g>
				<g>
					<g>
						<path fill="#444444" d="M3.8,12.9C3.8,12.9,3.8,12.9,3.8,12.9c-0.1-0.1-0.2-0.1-0.1-0.2l4.6-7.9c0-0.1,0.1-0.1,0.2-0.1
							c0.1,0,0.1,0.1,0.1,0.2l-4.6,7.9C3.9,12.9,3.9,12.9,3.8,12.9z"/>
					</g>
				</g>
			</g>
			<g>
				<g>
					<g>
						<line fill="#444444" x1="11.7" y1="12" x2="8" y2="5.6"/>
					</g>
				</g>
				<g>
					<g>
						<path fill="#444444" d="M12,12.7c0,0-0.1,0-0.1-0.1L7.5,5.1c0-0.1,0-0.1,0-0.2c0.1,0,0.1,0,0.2,0l4.4,7.6
							C12.2,12.6,12.2,12.7,12,12.7C12.1,12.7,12.1,12.7,12,12.7z"/>
					</g>
				</g>
			</g>
			<g>
				<g>
					<g>
						<path fill="#444444" stroke="#CCCACA" stroke-width="0.5" stroke-linecap="round" stroke-miterlimit="10" d="M4.2,12"/>
					</g>
				</g>
			</g>
			<g>
				<g>
					<g>
						<line fill="#444444" x1="8" y1="15.2" x2="4.2" y2="12"/>
					</g>
				</g>
				<g>
					<g>
						<path fill="#444444" d="M8,15.5c-0.1,0-0.1,0-0.2-0.1l-3.7-3.2C4,12.1,4,12,4.1,11.9c0.1-0.1,0.2-0.1,0.3,0L8.1,15
							c0.1,0.1,0.1,0.2,0,0.3C8.1,15.4,8,15.5,8,15.5z"/>
					</g>
				</g>
			</g>
			<g>
				<g>
					<g>
						<line fill="#444444" x1="11.8" y1="12" x2="8" y2="15.2"/>
					</g>
				</g>
				<g>
					<g>
						<path fill="#444444" d="M8,15.5c-0.1,0-0.1,0-0.2-0.1c-0.1-0.1-0.1-0.2,0-0.3l3.8-3.2c0.1-0.1,0.2-0.1,0.3,0
							c0.1,0.1,0.1,0.2,0,0.3l-3.8,3.2C8.1,15.4,8,15.5,8,15.5z"/>
					</g>
				</g>
			</g>
			<g>
				<g>
					<g>
						<line fill="#444444" x1="6.1" y1="8.8" x2="9.8" y2="8.8"/>
					</g>
				</g>
				<g>
					<g>
						<path fill="#444444" d="M9.8,8.9H6.1C6,8.9,6,8.9,6,8.8S6,8.7,6.1,8.7h3.7c0.1,0,0.1,0.1,0.1,0.1S9.9,8.9,9.8,8.9z"/>
					</g>
				</g>
			</g>
			<g>
				<g>
					<g>
						<line fill="#444444" x1="6.1" y1="8.8" x2="11.8" y2="12"/>
					</g>
				</g>
				<g>
					<g>
						<path fill="#444444" d="M11.8,12.2C11.7,12.2,11.7,12.2,11.8,12.2L6,8.9C6,8.9,6,8.8,6,8.8c0-0.1,0.1-0.1,0.2,0l5.7,3.2
							c0.1,0,0.1,0.1,0,0.2C11.8,12.1,11.8,12.2,11.8,12.2z"/>
					</g>
				</g>
			</g>
			<g>
				<g>
					<g>
						<line fill="#444444" x1="7.8" y1="14.7" x2="6.3" y2="9.3"/>
					</g>
					<g>
						
							<rect x="6.6" y="9.2" transform="matrix(0.9607 -0.2777 0.2777 0.9607 -3.0605 2.425)" fill="#444444" width="0.8" height="5.6"/>
					</g>
				</g>
				<g>
					<g>
						<path fill="#444444" d="M7.8,14.9c-0.1,0-0.2-0.1-0.2-0.1L6.1,9.4c0-0.1,0-0.2,0.1-0.2c0.1,0,0.2,0,0.2,0.1L8,14.6
							C8,14.7,8,14.9,7.8,14.9C7.8,14.9,7.8,14.9,7.8,14.9z"/>
					</g>
					<g>
						<path fill="#444444" d="M7.8,15.2c-0.3,0-0.5-0.2-0.6-0.4L5.7,9.6C5.6,9.3,5.8,8.9,6.1,8.8c0.2,0,0.3,0,0.5,0
							C6.7,9,6.8,9.1,6.8,9.2l1.6,5.2c0.1,0.3-0.1,0.6-0.4,0.7L7.8,15.2z"/>
					</g>
				</g>
			</g>
			<g>
				<g>
					<g>
						<path fill="#444444" d="M8,15.4c-0.1,0-0.2,0-0.2-0.1c-0.1-0.1,0-0.3,0.1-0.3l6.6-3.1c0.1-0.1,0.3,0,0.3,0.1
							c0.1,0.1,0,0.3-0.1,0.3l-6.6,3.1C8,15.4,8,15.4,8,15.4z"/>
					</g>
				</g>
				<g>
					<g>
						<line fill="#444444" x1="8" y1="15.2" x2="14.6" y2="12.1"/>
					</g>
				</g>
			</g>
			<g>
				<g>
					<g>
						<line fill="#444444" x1="1.4" y1="12.1" x2="7.9" y2="15.2"/>
					</g>
				</g>
				<g>
					<g>
						<path fill="#444444" d="M7.9,15.4c0,0-0.1,0-0.1,0l-6.5-3.1c-0.1-0.1-0.2-0.2-0.1-0.3c0.1-0.1,0.2-0.2,0.3-0.1L8,15
							c0.1,0.1,0.2,0.2,0.1,0.3C8.1,15.4,8,15.4,7.9,15.4z"/>
					</g>
				</g>
			</g>
			<g>
				<g>
					<g>
						<line fill="#444444" x1="8" y1="0.8" x2="1.4" y2="12"/>
					</g>
				</g>
				<g>
					<g>
						<path fill="#444444" d="M1.4,12.3c0,0-0.1,0-0.1,0c-0.1-0.1-0.1-0.2-0.1-0.3L7.8,0.7C7.8,0.6,8,0.5,8.1,0.6
							c0.1,0.1,0.1,0.2,0.1,0.3L1.6,12.1C1.5,12.2,1.5,12.3,1.4,12.3z"/>
					</g>
				</g>
			</g>
			<g>
				<g>
					<g>
						<line fill="#444444" x1="14.6" y1="12" x2="8" y2="0.8"/>
					</g>
				</g>
				<g>
					<g>
						<path fill="#444444" d="M14.6,12.3c-0.1,0-0.2,0-0.2-0.1L7.8,0.9c-0.1-0.1,0-0.3,0.1-0.3c0.1-0.1,0.3,0,0.3,0.1l6.6,11.2
							c0.1,0.1,0,0.3-0.1,0.3C14.7,12.3,14.7,12.3,14.6,12.3z"/>
					</g>
				</g>
			</g>
		</g>
	</g>
</g>
</svg>
